<?xml version="1.0" standalone="no"?><!DOCTYPE svg PUBLIC "-//W3C//DTD SVG 1.1//EN" "http://www.w3.org/Graphics/SVG/1.1/DTD/svg11.dtd"><svg t="1629084979404" class="icon" viewBox="0 0 1025 1024" version="1.1" xmlns="http://www.w3.org/2000/svg" p-id="3113" xmlns:xlink="http://www.w3.org/1999/xlink" width="16.015625" height="16"><defs><style type="text/css"></style></defs><path d="M653.302558 611.117182 370.983634 611.117182c-26.144626 0-47.286268 21.249233-47.286268 47.286268s21.195437 47.340063 47.286268 47.340063l282.318923 0c26.037035 0 47.232472-21.303029 47.232472-47.340063C700.481235 632.366415 679.339593 611.117182 653.302558 611.117182zM439.734317 415.409056l144.602375 0c26.037035 0 47.286268-21.249233 47.286268-47.178677 0-26.09083-21.249233-47.393859-47.286268-47.393859L439.734317 320.83652c-26.09083 0-47.232472 21.303029-47.232472 47.393859C392.448049 394.159823 413.589691 415.409056 439.734317 415.409056zM819.799713 0.107591C619.088603 0 418.323698 0.107591 217.558793 0 198.568972 0 180.009515 1.452479 161.288672 5.594735c-95.271878 20.92646-158.750599 101.888727-159.987896 197.429582C-1.120023 400.830468 0.547638 598.475233 0.601434 796.173793c0 22.378939 0.968319 44.219923 6.186486 66.545066 21.948575 93.012465 98.768587 158.158848 197.859947 160.256874 102.372887 1.990434 204.907161 0.430364 307.226252 0.430364 98.822382 0 197.752356-0.107591 296.574738 0.107591 19.043616 0.053796 37.441686-1.56007 56.216325-5.863712 94.626331-21.840984 159.288554-101.996318 159.34235-199.366221 0.053796-204.853365 0.107591-409.70673 0-614.560095C1023.953736 90.43028 933.415865 0.161387 819.799713 0.107591zM910.660357 497.178257l0 135.779909 0 30.125495c0 137.501366-111.35674 248.858106-248.911901 248.858106L519.835856 911.941766 391.210752 911.941766 362.268759 911.941766c-137.555161 0-248.911901-111.35674-248.911901-248.858106L113.356858 361.021779c0-137.44757 111.35674-248.858106 248.911901-248.858106l68.535501 0 88.977801 0 4.787802 0c0 0.107591 0 0.107591 0 0.107591 135.295749 2.52839 244.177895 112.863015 244.177895 248.750515l0 3.819482 0 20.4423c0 15.062747 12.26538 27.274332 27.166741 27.274332l28.404038 0 13.717859 0c40.077667 0 72.570165 32.492498 72.570165 72.623961L910.660357 497.178257 910.660357 497.178257z" p-id="3114"></path></svg>