<?xml version="1.0" standalone="no"?><!DOCTYPE svg PUBLIC "-//W3C//DTD SVG 1.1//EN" "http://www.w3.org/Graphics/SVG/1.1/DTD/svg11.dtd"><svg t="1629084530580" class="icon" viewBox="0 0 1024 1024" version="1.1" xmlns="http://www.w3.org/2000/svg" p-id="1656" xmlns:xlink="http://www.w3.org/1999/xlink" width="16" height="16"><defs><style type="text/css"></style></defs><path d="M511.896576 0c-282.712064 0-511.896576 229.184512-511.896576 511.899648 0 282.708992 229.184512 511.893504 511.896576 511.893504s511.893504-229.184512 511.893504-511.893504C1023.79008 229.184512 794.60864 0 511.896576 0zM464.433152 767.041536c-130.83136 0-264.563712-63.404032-264.563712-167.69024 0-54.520832 34.541568-117.568512 94.0288-177.068032 79.430656-79.409152 172.059648-115.581952 206.896128-80.723968 15.371264 15.348736 16.859136 41.947136 6.979584 73.693184-5.149696 15.992832 15.009792 7.13728 15.009792 7.172096 64.202752-26.88 120.215552-28.464128 140.68736 0.78848 10.925056 15.588352 9.879552 37.446656-0.18944 62.778368-4.657152 11.669504 1.432576 13.477888 10.313728 16.144384 36.175872 11.214848 76.438528 38.340608 76.438528 86.140928C750.032896 667.392 635.94496 767.041536 464.433152 767.041536zM701.2864 435.448832c4.231168-13.072384 1.580032-27.972608-8.28416-38.90688-9.854976-10.912768-24.419328-15.053824-37.851136-12.214272l0-0.023552c-11.203584 2.438144-22.247424-4.753408-24.649728-15.946752-2.408448-11.240448 4.749312-22.293504 15.97952-24.686592 27.476992-5.84192 57.244672 2.65216 77.402112 25.01632 20.200448 22.361088 25.602048 52.822016 16.96768 79.543296-3.524608 10.940416-15.244288 16.896-26.169344 13.39904-10.921984-3.535872-16.894976-15.269888-13.374464-26.180608L701.2864 435.448832zM822.412288 474.564608c-0.007168 0.021504-0.007168 0.069632-0.007168 0.093184-4.110336 12.674048-17.73056 19.61472-30.399488 15.512576-12.719104-4.10624-19.668992-17.696768-15.563776-30.401536l-0.007168-0.008192c12.599296-39.001088 4.609024-83.49184-24.807424-116.109312-29.443072-32.620544-72.856576-45.080576-112.9728-36.56192-13.048832 2.782208-25.880576-5.547008-28.662784-18.582528-2.793472-13.024256 5.52448-25.86112 18.573312-28.653568l0.023552 0c56.388608-11.988992 117.481472 5.516288 158.901248 51.437568C828.920832 357.164032 840.088576 419.703808 822.412288 474.564608zM640.536576 578.312192c-6.767616-68.514816-96.889856-115.705856-201.298944-105.382912-104.38656 10.322944-183.547904 74.238976-176.766976 142.767104 6.781952 68.545536 96.900096 115.736576 201.29792 105.434112C568.179712 710.801408 647.307264 646.879232 640.536576 578.312192zM530.835456 634.569728c-21.305344 48.190464-82.586624 73.882624-134.575104 57.115648-50.193408-16.19968-71.442432-65.757184-49.466368-110.401536 21.577728-43.771904 77.727744-68.530176 127.40608-55.606272C525.613056 538.966016 551.84896 587.465728 530.835456 634.569728zM424.604672 597.858304c-16.164864-6.776832-37.061632 0.191488-47.03744 15.834112-10.098688 15.710208-5.36064 34.419712 10.691584 41.729024 16.285696 7.436288 37.90848 0.376832 48.008192-15.73376C446.1824 623.418368 440.961024 604.829696 424.604672 597.858304zM464.448512 581.34016c-6.203392-2.461696-13.959168 0.518144-17.596416 6.62016-3.533824 6.132736-1.584128 13.11744 4.632576 15.675392 6.324224 2.603008 14.395392-0.402432 18.046976-6.641664C473.01632 590.706688 470.751232 583.645184 464.448512 581.34016z" p-id="1657"></path></svg>