<?xml version="1.0" encoding="UTF-8"?>
<svg id="_图层_1" data-name="图层 1" xmlns="http://www.w3.org/2000/svg" xmlns:xlink="http://www.w3.org/1999/xlink" viewBox="0 0 500 81.76">
  <defs>
    <style>
      .cls-1 {
        fill: url(#_未命名的渐变_112);
      }

      .cls-2 {
        fill: url(#_未命名的渐变_22);
      }

      .cls-3 {
        fill: url(#_未命名的渐变_112-2);
      }
    </style>
    <linearGradient id="_未命名的渐变_22" data-name="未命名的渐变 22" x1=".77" y1="34.3" x2="69.31" y2="-23.21" gradientUnits="userSpaceOnUse">
      <stop offset="0" stop-color="#0096fe"/>
      <stop offset=".11" stop-color="#0896fe"/>
      <stop offset=".27" stop-color="#2197fe"/>
      <stop offset=".48" stop-color="#4999fe"/>
      <stop offset=".72" stop-color="#809bfe"/>
      <stop offset=".99" stop-color="#c49ffe"/>
    </linearGradient>
    <linearGradient id="_未命名的渐变_112" data-name="未命名的渐变 112" x1="42.77" y1="81.84" x2="83.74" y2="47.46" gradientUnits="userSpaceOnUse">
      <stop offset="0" stop-color="#0096fe"/>
      <stop offset=".11" stop-color="#0896fe"/>
      <stop offset=".27" stop-color="#2197fe"/>
      <stop offset=".49" stop-color="#4999fe"/>
      <stop offset=".73" stop-color="#809bfe"/>
      <stop offset="1" stop-color="#c49ffe"/>
    </linearGradient>
    <linearGradient id="_未命名的渐变_112-2" data-name="未命名的渐变 112" x1="4.68" y1="72.41" x2="79.84" y2="9.35" xlink:href="#_未命名的渐变_112"/>
  </defs>
  <g>
    <path d="M127.98,13.93c-14.64,0-26.56,11.91-26.56,26.56s11.92,26.56,26.56,26.56,26.57-11.91,26.57-26.56-11.92-26.56-26.57-26.56ZM127.98,59.18c-10.18,0-18.16-8.22-18.16-18.69s7.98-18.68,18.16-18.68,18.18,8.03,18.18,18.68-7.82,18.69-18.18,18.69Z"/>
    <path d="M177.88,34.56c4.79,0,9.1,2.97,10.97,7.57l.07.18h8l-.09-.37c-2.24-8.8-10.05-14.94-18.98-14.94-10.82,0-19.62,8.98-19.62,20.02s8.8,20.02,19.62,20.02c8.93,0,16.73-6.14,18.98-14.94l.09-.37h-7.99l-.07.18c-1.88,4.6-6.18,7.57-10.97,7.57-6.58,0-11.93-5.59-11.93-12.47s5.35-12.47,11.93-12.47Z"/>
    <path d="M220.09,27c-10.8,0-19.61,8.98-19.61,20.02s8.81,20.02,19.61,20.02c7.9,0,15.18-4.86,18.1-12.09l.16-.4h-8.52l-.09.13c-2.05,2.92-5.82,4.81-9.62,4.81-5.6,0-10.38-3.99-11.63-9.7l-.05-.24h30.59l.02-.27c.08-.74.13-1.5.13-2.27,0-1.41-.14-2.83-.41-4.23-1.86-9.3-9.53-15.79-18.69-15.79ZM208.85,42.95l.09-.27c1.73-4.86,6.23-8.12,11.18-8.12s9.12,3.19,10.73,8.12l.08.27h-22.09Z"/>
    <path d="M274.26,32.3l-.33-.28c-3.43-2.83-7.56-4.34-11.94-4.34-10.52,0-19.07,8.83-19.07,19.69s8.55,19.67,19.07,19.67c4.39,0,8.52-1.5,11.94-4.34l.33-.28v4.21h7.79V29.34h-7.79v2.96ZM262.41,59.62c-6.48,0-11.73-5.5-11.73-12.25s5.26-12.27,11.73-12.27,11.72,5.5,11.72,12.27-5.27,12.25-11.72,12.25Z"/>
    <path d="M410.27,32.3l-.33-.28c-3.42-2.83-7.56-4.34-11.96-4.34-10.51,0-19.07,8.83-19.07,19.69s8.56,19.67,19.07,19.67c4.41,0,8.54-1.5,11.96-4.34l.33-.28v3.88h7.79V29.34h-7.79v2.96ZM398.41,59.62c-6.47,0-11.72-5.5-11.72-12.25s5.26-12.27,11.72-12.27,11.73,5.5,11.73,12.27-5.27,12.25-11.73,12.25Z"/>
    <path d="M499.59,42.79c-1.86-9.3-9.53-15.79-18.68-15.79-10.82,0-19.61,8.98-19.61,20.02s8.79,20.02,19.61,20.02c7.89,0,15.17-4.86,18.09-12.09l.16-.4h-8.52l-.09.13c-2.05,2.92-5.82,4.81-9.6,4.81-5.61,0-10.39-3.99-11.63-9.7l-.06-.25h30.59l.04-.26c.07-.74.12-1.5.12-2.27,0-1.41-.14-2.83-.41-4.23ZM469.66,42.95l.09-.27c1.74-4.87,6.23-8.14,11.19-8.14s9.11,3.2,10.72,8.15l.08.26h-22.09Z"/>
    <path d="M316.2,29.26c-6.1-2.58-14.06-1.03-18.91,3.7l-.35.34v-3.96h-8.13v37.29h8.13v-19.27c0-7.59,5.58-11.69,10.84-11.69,2.46,0,4.71.88,6.34,2.47,1.84,1.8,2.81,4.42,2.81,7.57v20.91h8.13v-22.05c0-7.47-3.15-12.91-8.86-15.31Z"/>
    <path d="M368.29,39.79l-.21-.11.14-.19c2.08-2.56,3.23-5.81,3.23-9.13,0-8.01-6.51-14.52-14.51-14.52h-24.83v50.79h28.53c6.35,0,11.96-3.86,13.98-9.59,2.29-6.51-.38-13.77-6.34-17.25ZM355.26,37.86h-14.35v-14.82h14.35c4.08,0,7.41,3.33,7.41,7.41s-3.33,7.42-7.41,7.42ZM340.91,44.88h18.48c4.01,0,7.27,3.26,7.27,7.27s-3.26,7.29-7.27,7.29h-18.48v-14.55Z"/>
    <path d="M450.77,45.78c-.99-.38-2.22-.76-3.78-1.18-1.39-.37-2.85-.71-4.09-1l-.86-.21c-.41-.1-.8-.19-1.17-.28-1.06-.25-2.26-.55-3.23-.82-3.41-.94-5.14-1.81-5.14-3.93,0-2.38,3.13-4.31,6.98-4.31,4.8,0,8.05,1.53,9.65,4.55l.13.24,7.72-3.45-.15-.28c-2.89-5.28-9.06-8.19-17.35-8.19-9.51,0-14.89,5.71-15.13,11.08-.34,7.59,7,9.69,10.13,10.59l.11.04c1.15.33,2.53.67,3.86.99l.41.1c.53.13,1.1.26,1.68.39l.67.15c1.7.38,3.47.77,4.73,1.18,2.99,1,4.06,2.01,4.06,3.89,0,3.04-4.28,4.63-8.51,4.63-8.24,0-10.78-4.71-11.36-6.16l-.12-.29-7.58,3.51.12.26c1.28,2.93,5.68,9.74,18.76,9.74,16.68,0,17.16-10.6,17.16-11.81,0-5.86-5.39-8.56-7.7-9.45Z"/>
  </g>
  <g>
    <path class="cls-2" d="M42.26.85v16.87c0,.47-.24.9-.64,1.15-12.03,7.48-25.56,12.78-40.03,15.35-.83.15-1.59-.49-1.59-1.33v-16.17c0-.65.46-1.2,1.1-1.33C15.4,12.56,28.85,7.32,40.98.12c.56-.33,1.27.07,1.27.73Z"/>
    <path class="cls-1" d="M84.51,48.88v16.17c0,.65-.46,1.2-1.1,1.33-14.31,2.82-27.75,8.06-39.89,15.26-.56.33-1.27-.07-1.27-.73v-16.87c0-.47.24-.9.64-1.15,12.03-7.48,25.56-12.78,40.03-15.35.83-.15,1.59.49,1.59,1.33Z"/>
    <path class="cls-3" d="M84.51,15.41v22.6c0,.66-.48,1.23-1.13,1.33-35.44,5.77-46.77,27.74-82,28.35-.76.01-1.37-.6-1.37-1.35v-22.6c0-.66.48-1.23,1.13-1.33,35.44-5.77,46.77-27.74,82-28.35.76-.01,1.38.6,1.38,1.35Z"/>
  </g>
</svg>