<?xml version="1.0" encoding="UTF-8"?>
<svg width="195px" height="20px" viewBox="0 0 195 20" version="1.1" xmlns="http://www.w3.org/2000/svg" xmlns:xlink="http://www.w3.org/1999/xlink">
    <title>编组备份</title>
    <defs>
        <filter id="filter-1">
            <feColorMatrix in="SourceGraphic" type="matrix" values="0 0 0 0 1.000000 0 0 0 0 1.000000 0 0 0 0 1.000000 0 0 0 1.000000 0"></feColorMatrix>
        </filter>
        <linearGradient x1="100%" y1="0%" x2="1.97876229%" y2="0%" id="linearGradient-2">
            <stop stop-color="#008F57" offset="0%"></stop>
            <stop stop-color="#2A66FF" offset="100%"></stop>
        </linearGradient>
    </defs>
    <g id="控件" stroke="none" stroke-width="1" fill="none" fill-rule="evenodd">
        <g id="编组备份">
            <g filter="url(#filter-1)" id="编组">
                <g transform="translate(0.000000, 1.111111)">
                    <path d="M127.287222,12.2003056 L126.995278,13.9353056 C127.884444,13.8225278 128.873889,13.6453056 129.945,13.3736389 C132.76,12.6603056 134.785833,12.5516944 136.203889,12.6750278 L136.203889,12.6750278 L135.599167,16.2144722 C134.711111,16.0983611 133.092778,16.09725 130.449167,16.7675278 C127.493056,17.5166944 125.040833,17.6639167 123.370278,17.6333611 C122.87,17.6241944 122.441667,17.5989167 122.089444,17.5691944 L122.089444,17.5691944 L122.998611,12.3053056 C123.314722,12.3286389 123.682222,12.3480833 124.101389,12.3555833 C124.966111,12.3716944 126.041944,12.3389167 127.287222,12.2003056 L127.287222,12.2003056 Z M10.7635833,0.285305556 C12.0858056,0.285305556 13.2671944,0.50725 14.3083056,0.950027778 C15.3488611,1.39363889 16.2033056,2.00725 16.8716389,2.79197222 C17.5396944,3.57641667 18.0058056,4.49586111 18.2708056,5.54919444 C18.53525,6.60280556 18.56025,7.74002778 18.3449722,8.96030556 C18.1296944,10.1811389 17.7038611,11.3180833 17.06775,12.3716944 C16.4313611,13.4255833 15.6410833,14.3441944 14.6963611,15.1289167 C13.7513611,15.9136389 12.68025,16.5275278 11.4833056,16.9705833 C10.2860833,17.4136389 9.02636111,17.6355833 7.70441667,17.6355833 C6.36719444,17.6355833 5.18247222,17.4136389 4.14886111,16.9705833 C3.11525,16.5275278 2.26802778,15.9136389 1.60719444,15.1289167 C0.946361111,14.3441944 0.483583333,13.4255833 0.219138889,12.3716944 C-0.0458611111,11.3180833 -0.0705833333,10.1811389 0.144972222,8.96030556 C0.359972222,7.74002778 0.785527778,6.60280556 1.42219444,5.54919444 C2.05802778,4.49586111 2.84525,3.57641667 3.78247222,2.79197222 C4.71997222,2.00725 5.78386111,1.39363889 6.97358333,0.950027778 C8.16358333,0.50725 9.42636111,0.285305556 10.7635833,0.285305556 Z M118.059139,0.285222222 C118.87275,0.285222222 119.703028,0.398 120.549694,0.623 C121.396083,0.848555556 122.188028,1.17911111 122.92525,1.61466667 L122.92525,1.61466667 L120.636917,4.94966667 C120.238306,4.57216667 119.82275,4.29244444 119.389972,4.11077778 C118.956639,3.92911111 118.522472,3.83827778 118.086639,3.83827778 C117.534139,3.83827778 117.060806,3.96911111 116.665806,4.2305 C116.271361,4.49216667 116.036361,4.83355556 115.962194,5.25494444 C115.911083,5.54577778 115.955806,5.7855 116.096917,5.97411111 C116.238028,6.16327778 116.438028,6.32661111 116.697194,6.46466667 C116.956083,6.60272222 117.254417,6.72272222 117.59275,6.82438889 C117.930806,6.92605556 118.263861,7.03522222 118.592194,7.15133333 C119.90525,7.61661111 120.816361,8.23772222 121.326083,9.01494444 C121.83525,9.79244444 121.98025,10.8060556 121.759694,12.0555 C121.611083,12.8982778 121.334972,13.6613333 120.931361,14.3443889 C120.527472,15.0274444 120.01025,15.6121667 119.379139,16.0988333 C118.748583,16.5857778 118.013583,16.9635556 117.174417,17.2321667 C116.334694,17.5010556 115.414139,17.6355 114.411083,17.6355 C112.333306,17.6355 110.516917,17.0182778 108.961917,15.7824444 L108.961917,15.7824444 L111.399972,12.3388333 C111.939139,12.9057778 112.497194,13.3271667 113.073583,13.603 C113.649139,13.8793889 114.24275,14.0171667 114.853306,14.0171667 C115.550806,14.0171667 116.098028,13.8577222 116.496083,13.5377222 C116.893583,13.2182778 117.128583,12.8546667 117.200528,12.4477222 C117.243861,12.2010556 117.238028,11.9866111 117.183306,11.8049444 C117.128028,11.6232778 117.012194,11.4560556 116.835528,11.3035556 C116.658861,11.1507778 116.418583,11.0093889 116.114972,10.8782778 C115.811083,10.7477222 115.440806,10.6027222 115.003861,10.4427222 C114.482194,10.2682778 113.974972,10.0757778 113.481917,9.86522222 C112.988583,9.65466667 112.565528,9.37466667 112.213306,9.02577778 C111.86025,8.67716667 111.603583,8.23772222 111.443028,7.70716667 C111.281917,7.17688889 111.273306,6.50494444 111.417194,5.69105556 C111.560528,4.87716667 111.824694,4.13994444 112.21025,3.47855556 C112.595806,2.81744444 113.073306,2.25077778 113.643583,1.77827778 C114.213583,1.30633333 114.873861,0.939388889 115.62525,0.677722222 C116.375806,0.416055556 117.187194,0.285222222 118.059139,0.285222222 Z M29.2302222,0.285277778 C29.8841111,0.285277778 30.5149444,0.354444444 31.1227222,0.4925 C31.7305,0.630555556 32.3574444,0.845 33.0038333,1.13555556 L33.0038333,1.13555556 L32.1046667,6.23583333 C31.3288333,5.03 30.2146667,4.42666667 28.7616111,4.42666667 C28.1221667,4.42666667 27.5099444,4.54305556 26.9238333,4.77527778 C26.3377222,5.00805556 25.8135556,5.32416667 25.3507778,5.72333333 C24.8877222,6.12361111 24.4949444,6.59888889 24.1724444,7.15138889 C23.8496667,7.70361111 23.6324444,8.29944444 23.5196667,8.93861111 C23.4043889,9.59277778 23.4102222,10.1958333 23.5385556,10.7475 C23.6660556,11.3 23.8938333,11.7797222 24.2221667,12.1863889 C24.5496667,12.5933333 24.9618889,12.9133333 25.4588333,13.1455556 C25.9552222,13.3780556 26.5160556,13.4941667 27.1410556,13.4941667 C28.5066111,13.4941667 29.8374444,12.9133333 31.1321667,11.7502778 L31.1321667,11.7502778 L30.2407778,16.8072222 L29.7774444,16.9597222 C29.0827222,17.1919444 28.4424444,17.3627778 27.8563333,17.4719444 C27.2705,17.5811111 26.7013333,17.6355556 26.1493889,17.6355556 C25.0157778,17.6355556 23.9671667,17.4208333 23.0038333,16.9925 C22.0405,16.5641667 21.2313333,15.9608333 20.5766111,15.1833333 C19.9213333,14.4061111 19.4488333,13.4833333 19.1574444,12.4152778 C18.8663333,11.3469444 18.8321667,10.1811111 19.0549444,8.91694444 C19.278,7.6525 19.7182778,6.49416667 20.3763333,5.44027778 C21.0343889,4.38694444 21.8263333,3.47861111 22.7532778,2.71555556 C23.6796667,1.95277778 24.7038333,1.35722222 25.8255,0.928333333 C26.9474444,0.499722222 28.0821667,0.285277778 29.2302222,0.285277778 Z M103.727472,14.0534444 C106.036083,13.5226111 107.39025,13.5962222 108.083306,13.7292778 L108.083306,13.7292778 L108.809694,17.2403889 L104.253861,17.2403889 Z M105.451556,0.805444444 L106.991278,8.25377778 C105.889611,8.27183333 104.510167,8.43572222 102.799611,8.85294444 L102.799611,8.85294444 L102.262389,5.66627778 L99.7629444,10.4293333 C100.560722,10.3151667 101.440167,10.1440556 102.389333,9.89155556 C102.585167,9.83961111 102.776278,9.79127778 102.964056,9.74544444 C104.674611,9.32822222 106.054056,9.16433333 107.155722,9.14627778 L107.155722,9.14627778 L107.895444,12.7662778 C107.202389,12.6335 105.848222,12.5596111 103.539611,13.0907222 C103.287667,13.1487778 103.027667,13.2118333 102.752111,13.2846111 C100.864889,13.7862778 99.2012778,14.0190556 97.8312778,14.1104444 L97.8312778,14.1104444 L96.1890556,17.2401667 L91.6337778,17.2401667 L100.787389,0.805444444 L105.451556,0.805444444 Z M58.8605,0.743277778 L62.2185556,17.1777222 L57.6627222,17.1777222 L57.1855,14.3221667 L51.0821667,14.3221667 L49.5982778,17.1777222 L45.0427222,17.1777222 L54.1960556,0.743277778 L58.8605,0.743277778 Z M69.7591111,0.742916667 L74.7505,10.6034722 L76.5221667,0.742916667 L80.7727222,0.742916667 L77.8746667,17.1779167 L73.6243889,17.1779167 L68.633,7.31736111 L66.8613333,17.1779167 L62.5891111,17.1779167 L65.4868889,0.742916667 L69.7591111,0.742916667 Z M47.2489444,0.743083333 L46.6108889,4.36141667 L37.9631111,4.36141667 L37.4786667,7.10752778 L45.8433889,7.10752778 L45.2053333,10.7261389 L36.8406111,10.7261389 L36.3411667,13.5594722 L44.9892222,13.5594722 L44.357,17.1769722 L31.4308889,17.1775278 L34.3286667,0.743083333 L47.2489444,0.743083333 Z M89.0165278,0.743194444 C90.5276389,0.743194444 91.6118056,1.10652778 92.2681944,1.83291667 C92.9248611,2.55986111 93.1326389,3.60597222 92.8918056,4.97180556 C92.7459722,5.79986111 92.4754167,6.48652778 92.0818056,7.03152778 C91.6876389,7.57652778 91.1523611,8.03791667 90.4754167,8.41569444 C91.0654167,8.53180556 91.5531944,8.70986111 91.9398611,8.94958333 C92.3259722,9.18902778 92.6229167,9.48375 92.8304167,9.83236111 C93.0376389,10.1809722 93.1606944,10.5734722 93.2004167,11.0093056 C93.2398611,11.4451389 93.2159722,11.9104167 93.12875,12.4040278 C92.9931944,13.1745833 92.7381944,13.8576389 92.3643056,14.4529167 C91.9901389,15.0493056 91.5243056,15.5506944 90.9656944,15.9570833 C90.4070833,16.3640278 89.76125,16.6693056 89.0279167,16.8723611 C88.2945833,17.07625 87.4918056,17.1776389 86.6201389,17.1776389 L86.6201389,17.1776389 L79.1904167,17.1776389 L82.0881944,0.743194444 Z M86.1623611,10.3773611 L84.6618056,10.3773611 L84.0468056,13.8645833 L85.5473611,13.8645833 C86.6229167,13.8645833 87.4170833,13.7268056 87.93125,13.4506944 C88.4445833,13.1745833 88.7554167,12.73125 88.8629167,12.1209722 C88.9706944,11.5106944 88.81625,11.0676389 88.4001389,10.7915278 C87.9834722,10.5156944 87.2376389,10.3773611 86.1623611,10.3773611 L86.1623611,10.3773611 Z M10.0333056,4.42669444 C9.40858333,4.42669444 8.79636111,4.53919444 8.19747222,4.76447222 C7.59802778,4.98975 7.05191667,5.30613889 6.55913889,5.71252778 C6.06552778,6.11975 5.64691667,6.59919444 5.30247222,7.15141667 C4.95802778,7.70363889 4.72830556,8.30669444 4.61302778,8.96030556 C4.49775,9.61447222 4.51469444,10.2175278 4.66469444,10.7694722 C4.81413889,11.3219722 5.06386111,11.8014167 5.41358333,12.2080833 C5.76330556,12.6153056 6.19775,12.9311389 6.71747222,13.1564167 C7.23719444,13.3816944 7.80969444,13.4941944 8.43441667,13.4941944 C9.05913889,13.4941944 9.67136111,13.3816944 10.2705278,13.1564167 C10.8696944,12.9311389 11.4194167,12.6153056 11.9199722,12.2080833 C12.4199722,11.8014167 12.8424722,11.3219722 13.1871944,10.7694722 C13.5316389,10.2175278 13.7613611,9.61447222 13.8766389,8.96030556 C13.9919167,8.30669444 13.9746944,7.70363889 13.82525,7.15141667 C13.67525,6.59919444 13.4219167,6.11975 13.06525,5.71252778 C12.7080278,5.30613889 12.2696944,4.98975 11.7505278,4.76447222 C11.2305278,4.53919444 10.6583056,4.42669444 10.0333056,4.42669444 Z M130.762194,7.243 C133.681639,6.503 135.753583,6.41327778 137.177194,6.55855556 L137.177194,6.55855556 L136.571361,10.1057778 C135.722194,9.96994444 134.070806,9.9255 131.266361,10.6366111 C128.310528,11.3860556 125.858028,11.533 124.187472,11.5024444 C123.759139,11.4946667 123.383861,11.4746667 123.063028,11.4505 L123.063028,11.4505 L123.666361,7.91855556 C124.793028,8.02161111 127.371361,8.10272222 130.762194,7.243 Z M55.6713333,5.60355556 L52.7885556,11.0746667 L56.6246667,11.0746667 L55.6713333,5.60355556 Z M87.1323611,4.01236111 L85.7840278,4.01236111 L85.2229167,7.19486111 L86.57125,7.19486111 C87.9079167,7.19486111 88.6698611,6.66458333 88.8570833,5.60347222 C89.0440278,4.54319444 88.4690278,4.01236111 87.1323611,4.01236111 L87.1323611,4.01236111 Z M131.639333,0.883416667 C134.669889,0.114805556 136.786556,0.0478611111 138.2135,0.217027778 L138.2135,0.217027778 L137.605722,3.77397222 C136.812389,3.61980556 135.133778,3.51897222 132.1435,4.27702778 C130.783222,4.62175 129.531556,4.83786111 128.411556,4.96925 L128.411556,4.96925 L128.0935,6.85980556 C126.097389,7.12647222 124.591556,7.06730556 123.7985,6.99536111 L123.7985,6.99536111 L124.703222,1.57230556 C125.902389,1.66702778 128.399889,1.70452778 131.639333,0.883416667 Z" id="形状结合" fill="#0071FF"></path>
                </g>
            </g>
            <path d="M143.60951,0 L141,20 L190.551056,20 C191.552183,20 192.399085,19.2597794 192.533065,18.2676581 L194.693767,2.26765812 C194.84159,1.17302485 194.074049,0.165814637 192.979416,0.0179911379 C192.8907,0.00601056309 192.801279,3.01599337e-16 192.711758,0 L143.60951,0 L143.60951,0 Z" id="形状结合" fill="url(#linearGradient-2)"></path>
            <path d="M160.746667,15.48 L160.746667,14.1466667 L157.773333,14.1466667 L157.773333,9.09333333 L160.253333,9.09333333 L160.253333,7.73333333 L157.773333,7.73333333 L157.773333,3.97333333 L156.413333,3.92 L156.413333,7.73333333 L154.053333,7.73333333 L154.053333,9.09333333 L156.413333,9.09333333 L156.413333,14.1466667 L153.24,14.1466667 L153.24,15.48 L160.746667,15.48 Z M152.293333,15.9333333 L152.293333,10.7333333 C152.453333,10.8666667 152.617778,11.0088889 152.786667,11.16 C152.955556,11.3111111 153.117778,11.4577778 153.273333,11.6 C153.428889,11.7422222 153.571111,11.8755556 153.7,12 C153.828889,12.1244444 153.928889,12.2266667 154,12.3066667 L154,12.3066667 L154.706667,11.2 C154.608889,11.1022222 154.471111,10.9711111 154.293333,10.8066667 C154.115556,10.6422222 153.92,10.4711111 153.706667,10.2933333 C153.493333,10.1155556 153.282222,9.94 153.073333,9.76666667 C152.864444,9.59333333 152.684444,9.44888889 152.533333,9.33333333 C152.737778,9.04888889 152.926667,8.75777778 153.1,8.46 C153.273333,8.16222222 153.431111,7.87111111 153.573333,7.58666667 L153.573333,7.58666667 L153.573333,6.26666667 L152.4,6.26666667 C152.364444,6.09777778 152.324444,5.91111111 152.28,5.70666667 C152.235556,5.50222222 152.188889,5.3 152.14,5.1 C152.091111,4.9 152.042222,4.71333333 151.993333,4.54 C151.944444,4.36666667 151.902222,4.22222222 151.866667,4.10666667 L151.866667,4.10666667 L150.626667,4.25333333 C150.662222,4.36888889 150.702222,4.50888889 150.746667,4.67333333 C150.791111,4.83777778 150.835556,5.01111111 150.88,5.19333333 C150.924444,5.37555556 150.968889,5.56 151.013333,5.74666667 C151.057778,5.93333333 151.097778,6.10666667 151.133333,6.26666667 L151.133333,6.26666667 L149.373333,6.26666667 L149.373333,7.58666667 L152.12,7.58666667 C151.711111,8.28888889 151.217778,8.95333333 150.64,9.58 C150.062222,10.2066667 149.377778,10.88 148.586667,11.6 L148.586667,11.6 L149.28,12.8133333 C149.573333,12.5822222 149.864444,12.3333333 150.153333,12.0666667 C150.442222,11.8 150.724444,11.52 151,11.2266667 L151,11.2266667 L151,15.9333333 L152.293333,15.9333333 Z M173.793611,15.5733333 L173.793611,14.28 L164.513611,14.28 L164.513611,5.93333333 L173.540278,5.93333333 L173.540278,4.61333333 L163.126944,4.61333333 L163.126944,15.5733333 L173.793611,15.5733333 Z M171.793611,14.0133333 L172.766944,12.72 C172.384722,12.3111111 171.951389,11.8577778 171.466944,11.36 C170.9825,10.8622222 170.478056,10.3511111 169.953611,9.82666667 C170.398056,9.33777778 170.818056,8.84666667 171.213611,8.35333333 C171.609167,7.86 171.984722,7.36888889 172.340278,6.88 L172.340278,6.88 L171.220278,6.01333333 C170.544722,6.96444444 169.784722,7.90666667 168.940278,8.84 C168.406944,8.30666667 167.891389,7.80666667 167.393611,7.34 C166.895833,6.87333333 166.460278,6.47111111 166.086944,6.13333333 L166.086944,6.13333333 L165.153611,7.14666667 C165.500278,7.47555556 165.915833,7.88 166.400278,8.36 C166.884722,8.84 167.393611,9.35555556 167.926944,9.90666667 C167.393611,10.44 166.849167,10.9511111 166.293611,11.44 C165.738056,11.9288889 165.180278,12.3822222 164.620278,12.8 L164.620278,12.8 L165.486944,14 C166.073611,13.5555556 166.653611,13.0733333 167.226944,12.5533333 C167.800278,12.0333333 168.3625,11.4933333 168.913611,10.9333333 C169.446944,11.4844444 169.9625,12.0266667 170.460278,12.56 C170.958056,13.0933333 171.4025,13.5777778 171.793611,14.0133333 L171.793611,14.0133333 Z M176.120556,16.3333333 C176.307222,15.9688889 176.473889,15.6044444 176.620556,15.24 C176.767222,14.8755556 176.889444,14.4977778 176.987222,14.1066667 C177.085,13.7155556 177.167222,13.3022222 177.233889,12.8666667 C177.300556,12.4311111 177.347222,11.9555556 177.373889,11.44 L177.373889,11.44 L178.387222,11.44 L178.387222,15.8666667 L179.600556,15.8666667 L179.600556,15.2933333 L180.280556,15.76 C180.325,15.68 180.367222,15.6 180.407222,15.52 C180.447222,15.44 180.489444,15.36 180.533889,15.28 L180.533889,15.28 L181.293889,16.2666667 C181.889444,15.8755556 182.418333,15.4888889 182.880556,15.1066667 C183.342778,14.7244444 183.760556,14.3244444 184.133889,13.9066667 C184.480556,14.3333333 184.862778,14.7377778 185.280556,15.12 C185.698333,15.5022222 186.151667,15.8755556 186.640556,16.24 L186.640556,16.24 L187.280556,15.04 C186.791667,14.72 186.347222,14.3888889 185.947222,14.0466667 C185.547222,13.7044444 185.191667,13.3377778 184.880556,12.9466667 C185.262778,12.3777778 185.582778,11.7622222 185.840556,11.1 C186.098333,10.4377778 186.316111,9.70222222 186.493889,8.89333333 L186.493889,8.89333333 L186.493889,7.61333333 L181.827222,7.61333333 L181.827222,6.25333333 C182.191667,6.21777778 182.578333,6.17333333 182.987222,6.12 C183.396111,6.06666667 183.809444,6.00666667 184.227222,5.94 C184.645,5.87333333 185.058333,5.80222222 185.467222,5.72666667 C185.876111,5.65111111 186.262778,5.57333333 186.627222,5.49333333 L186.627222,5.49333333 L186.400556,4.17333333 C185.485,4.37777778 184.525,4.55555556 183.520556,4.70666667 C182.516111,4.85777778 181.556111,4.95555556 180.640556,5 L180.640556,5 L180.640556,8.61333333 C180.640556,9.24444444 180.622778,9.81555556 180.587222,10.3266667 C180.551667,10.8377778 180.493889,11.3177778 180.413889,11.7666667 C180.333889,12.2155556 180.227222,12.6422222 180.093889,13.0466667 C179.960556,13.4511111 179.796111,13.8577778 179.600556,14.2666667 L179.600556,14.2666667 L179.600556,10.1733333 L177.413889,10.1733333 L177.413889,8.84 L180.453889,8.84 L180.453889,7.58666667 L179.627222,7.58666667 L179.627222,4.05333333 L178.440556,4 L178.440556,7.58666667 L177.413889,7.58666667 L177.413889,4.28 L176.173889,4.22666667 L176.173889,9.34666667 C176.173889,10.1644444 176.156111,10.8733333 176.120556,11.4733333 C176.085,12.0733333 176.020556,12.6088889 175.927222,13.08 C175.833889,13.5511111 175.709444,13.9844444 175.553889,14.38 C175.398333,14.7755556 175.200556,15.1777778 174.960556,15.5866667 L174.960556,15.5866667 L176.120556,16.3333333 Z M180.640556,15.0533333 C180.853889,14.6 181.036111,14.1533333 181.187222,13.7133333 C181.338333,13.2733333 181.460556,12.8088889 181.553889,12.32 C181.647222,11.8311111 181.716111,11.3044444 181.760556,10.74 C181.805,10.1755556 181.827222,9.54222222 181.827222,8.84 L181.827222,8.84 L185.227222,8.84 C184.978333,9.97777778 184.605,10.9644444 184.107222,11.8 C183.636111,10.9822222 183.307222,10.0311111 183.120556,8.94666667 L183.120556,8.94666667 L182.053889,9.29333333 C182.151667,9.96 182.311667,10.5822222 182.533889,11.16 C182.756111,11.7377778 183.031667,12.2933333 183.360556,12.8266667 C182.693889,13.6 181.787222,14.3422222 180.640556,15.0533333 Z" id="社区版" fill="#FFFFFF" fill-rule="nonzero"></path>
        </g>
    </g>
</svg>